<?xml version="1.0" encoding="utf-8" ?>
<svg baseProfile="full" height="581" version="1.1" width="665" xmlns="http://www.w3.org/2000/svg" xmlns:ev="http://www.w3.org/2001/xml-events" xmlns:xlink="http://www.w3.org/1999/xlink"><defs /><polygon fill="white" points="304,507 304,532 357,532 357,507" /><polygon fill="white" points="415,452 415,477 468,477 468,452" /><polygon fill="white" points="360,452 360,504 385,504 385,452" /><polygon fill="white" points="276,452 276,504 302,504 302,452" /><polygon fill="white" points="193,452 193,477 246,477 246,452" /><polygon fill="white" points="387,424 387,449 413,449 413,424" /><polygon fill="white" points="249,424 249,449 274,449 274,424" /><polygon fill="white" points="471,396 471,449 496,449 496,396" /><polygon fill="white" points="165,396 165,449 190,449 190,396" /><polygon fill="white" points="443,368 443,394 468,394 468,368" /><polygon fill="white" points="304,368 304,394 357,394 357,368" /><polygon fill="white" points="193,368 193,394 218,394 218,368" /><polygon fill="white" points="471,341 471,366 524,366 524,341" /><polygon fill="white" points="360,341 360,366 385,366 385,341" /><polygon fill="white" points="276,341 276,366 301,366 302,365 302,341" /><polygon fill="white" points="137,341 137,366 190,366 190,341" /><polygon fill="white" points="526,286 526,338 552,338 552,286" /><polygon fill="white" points="387,286 387,338 413,338 413,286" /><polygon fill="white" points="249,286 249,338 274,338 274,286" /><polygon fill="white" points="109,286 109,338 135,338 135,286" /><polygon fill="white" points="471,257 471,283 524,283 524,257" /><polygon fill="white" points="360,257 360,283 385,283 385,257" /><polygon fill="white" points="276,257 276,283 301,283 302,282 302,259 301,258 301,257" /><polygon fill="white" points="138,257 137,258 137,283 190,283 190,257" /><polygon fill="white" points="443,230 443,256 468,256 468,230" /><polygon fill="white" points="304,230 304,256 357,256 357,230" /><polygon fill="white" points="193,230 193,256 218,256 218,230" /><polygon fill="white" points="471,175 471,228 495,228 496,227 496,175" /><polygon fill="white" points="387,175 387,200 413,200 413,175" /><polygon fill="white" points="249,175 249,200 274,200 274,175" /><polygon fill="white" points="165,175 165,227 166,228 190,228 190,175" /><polygon fill="white" points="415,147 415,172 468,172 468,147" /><polygon fill="white" points="193,147 193,172 246,172 246,147" /><polygon fill="white" points="360,119 360,172 385,172 385,119" /><polygon fill="white" points="276,119 276,172 302,172 302,120 301,119" /><polygon fill="white" points="304,91 304,117 357,117 357,91" /></svg>