<svg xmlns="http://www.w3.org/2000/svg" viewBox="0 0 160 160" shape-rendering="crispEdges">
<rect width="100%" height="100%" fill="#00000015"/>
<rect x="66" y="34" width="26" height="1" fill="white"/>
<rect x="66" y="35" width="26" height="1" fill="white"/>
<rect x="66" y="36" width="26" height="1" fill="white"/>
<rect x="56" y="37" width="43" height="1" fill="white"/>
<rect x="56" y="38" width="43" height="1" fill="white"/>
<rect x="56" y="39" width="43" height="1" fill="white"/>
<rect x="50" y="40" width="16" height="1" fill="white"/>
<rect x="91" y="40" width="12" height="1" fill="white"/>
<rect x="50" y="41" width="16" height="1" fill="white"/>
<rect x="91" y="41" width="12" height="1" fill="white"/>
<rect x="50" y="42" width="16" height="1" fill="white"/>
<rect x="91" y="42" width="12" height="1" fill="white"/>
<rect x="50" y="43" width="16" height="1" fill="white"/>
<rect x="91" y="43" width="16" height="1" fill="white"/>
<rect x="47" y="44" width="10" height="1" fill="white"/>
<rect x="97" y="44" width="10" height="1" fill="white"/>
<rect x="47" y="45" width="10" height="1" fill="white"/>
<rect x="97" y="45" width="10" height="1" fill="white"/>
<rect x="47" y="46" width="10" height="1" fill="white"/>
<rect x="97" y="46" width="10" height="1" fill="white"/>
<rect x="43" y="47" width="10" height="1" fill="white"/>
<rect x="66" y="47" width="3" height="1" fill="white"/>
<rect x="100" y="47" width="10" height="1" fill="white"/>
<rect x="43" y="48" width="10" height="1" fill="white"/>
<rect x="66" y="48" width="3" height="1" fill="white"/>
<rect x="100" y="48" width="10" height="1" fill="white"/>
<rect x="43" y="49" width="10" height="1" fill="white"/>
<rect x="66" y="49" width="3" height="1" fill="white"/>
<rect x="100" y="49" width="10" height="1" fill="white"/>
<rect x="40" y="50" width="10" height="1" fill="white"/>
<rect x="66" y="50" width="3" height="1" fill="white"/>
<rect x="103" y="50" width="7" height="1" fill="white"/>
<rect x="40" y="51" width="10" height="1" fill="white"/>
<rect x="66" y="51" width="3" height="1" fill="white"/>
<rect x="103" y="51" width="7" height="1" fill="white"/>
<rect x="40" y="52" width="10" height="1" fill="white"/>
<rect x="66" y="52" width="3" height="1" fill="white"/>
<rect x="103" y="52" width="7" height="1" fill="white"/>
<rect x="40" y="53" width="7" height="1" fill="white"/>
<rect x="56" y="53" width="4" height="1" fill="white"/>
<rect x="79" y="53" width="21" height="1" fill="white"/>
<rect x="103" y="53" width="7" height="1" fill="white"/>
<rect x="40" y="54" width="7" height="1" fill="white"/>
<rect x="56" y="54" width="4" height="1" fill="white"/>
<rect x="79" y="54" width="21" height="1" fill="white"/>
<rect x="103" y="54" width="7" height="1" fill="white"/>
<rect x="40" y="55" width="7" height="1" fill="white"/>
<rect x="56" y="55" width="4" height="1" fill="white"/>
<rect x="79" y="55" width="21" height="1" fill="white"/>
<rect x="103" y="55" width="7" height="1" fill="white"/>
<rect x="37" y="56" width="10" height="1" fill="white"/>
<rect x="53" y="56" width="7" height="1" fill="white"/>
<rect x="72" y="56" width="38" height="1" fill="white"/>
<rect x="37" y="57" width="10" height="1" fill="white"/>
<rect x="53" y="57" width="7" height="1" fill="white"/>
<rect x="72" y="57" width="38" height="1" fill="white"/>
<rect x="37" y="58" width="10" height="1" fill="white"/>
<rect x="53" y="58" width="7" height="1" fill="white"/>
<rect x="72" y="58" width="38" height="1" fill="white"/>
<rect x="37" y="59" width="10" height="1" fill="white"/>
<rect x="50" y="59" width="10" height="1" fill="white"/>
<rect x="65" y="59" width="29" height="1" fill="white"/>
<rect x="100" y="59" width="10" height="1" fill="white"/>
<rect x="37" y="60" width="7" height="1" fill="white"/>
<rect x="50" y="60" width="7" height="1" fill="white"/>
<rect x="65" y="60" width="29" height="1" fill="white"/>
<rect x="100" y="60" width="7" height="1" fill="white"/>
<rect x="37" y="61" width="7" height="1" fill="white"/>
<rect x="50" y="61" width="7" height="1" fill="white"/>
<rect x="65" y="61" width="29" height="1" fill="white"/>
<rect x="100" y="61" width="7" height="1" fill="white"/>
<rect x="34" y="62" width="10" height="1" fill="white"/>
<rect x="47" y="62" width="6" height="1" fill="white"/>
<rect x="62" y="62" width="14" height="1" fill="white"/>
<rect x="82" y="62" width="10" height="1" fill="white"/>
<rect x="104" y="62" width="3" height="1" fill="white"/>
<rect x="34" y="63" width="10" height="1" fill="white"/>
<rect x="47" y="63" width="6" height="1" fill="white"/>
<rect x="62" y="63" width="14" height="1" fill="white"/>
<rect x="82" y="63" width="9" height="1" fill="white"/>
<rect x="104" y="63" width="3" height="1" fill="white"/>
<rect x="34" y="64" width="10" height="1" fill="white"/>
<rect x="47" y="64" width="6" height="1" fill="white"/>
<rect x="62" y="64" width="14" height="1" fill="white"/>
<rect x="82" y="64" width="9" height="1" fill="white"/>
<rect x="104" y="64" width="3" height="1" fill="white"/>
<rect x="34" y="65" width="6" height="1" fill="white"/>
<rect x="47" y="65" width="6" height="1" fill="white"/>
<rect x="62" y="65" width="14" height="1" fill="white"/>
<rect x="82" y="65" width="9" height="1" fill="white"/>
<rect x="34" y="66" width="6" height="1" fill="white"/>
<rect x="47" y="66" width="6" height="1" fill="white"/>
<rect x="62" y="66" width="11" height="1" fill="white"/>
<rect x="82" y="66" width="6" height="1" fill="white"/>
<rect x="34" y="67" width="6" height="1" fill="white"/>
<rect x="47" y="67" width="6" height="1" fill="white"/>
<rect x="62" y="67" width="11" height="1" fill="white"/>
<rect x="82" y="67" width="6" height="1" fill="white"/>
<rect x="34" y="68" width="6" height="1" fill="white"/>
<rect x="47" y="68" width="6" height="1" fill="white"/>
<rect x="62" y="68" width="11" height="1" fill="white"/>
<rect x="82" y="68" width="6" height="1" fill="white"/>
<rect x="34" y="69" width="6" height="1" fill="white"/>
<rect x="47" y="69" width="6" height="1" fill="white"/>
<rect x="59" y="69" width="10" height="1" fill="white"/>
<rect x="82" y="69" width="6" height="1" fill="white"/>
<rect x="34" y="70" width="6" height="1" fill="white"/>
<rect x="47" y="70" width="6" height="1" fill="white"/>
<rect x="59" y="70" width="10" height="1" fill="white"/>
<rect x="82" y="70" width="6" height="1" fill="white"/>
<rect x="34" y="71" width="6" height="1" fill="white"/>
<rect x="47" y="71" width="6" height="1" fill="white"/>
<rect x="59" y="71" width="10" height="1" fill="white"/>
<rect x="82" y="71" width="6" height="1" fill="white"/>
<rect x="104" y="71" width="3" height="1" fill="white"/>
<rect x="34" y="72" width="6" height="1" fill="white"/>
<rect x="47" y="72" width="6" height="1" fill="white"/>
<rect x="59" y="72" width="10" height="1" fill="white"/>
<rect x="82" y="72" width="6" height="1" fill="white"/>
<rect x="103" y="72" width="4" height="1" fill="white"/>
<rect x="34" y="73" width="6" height="1" fill="white"/>
<rect x="47" y="73" width="3" height="1" fill="white"/>
<rect x="59" y="73" width="7" height="1" fill="white"/>
<rect x="82" y="73" width="6" height="1" fill="white"/>
<rect x="103" y="73" width="4" height="1" fill="white"/>
<rect x="34" y="74" width="6" height="1" fill="white"/>
<rect x="47" y="74" width="3" height="1" fill="white"/>
<rect x="59" y="74" width="7" height="1" fill="white"/>
<rect x="82" y="74" width="6" height="1" fill="white"/>
<rect x="103" y="74" width="4" height="1" fill="white"/>
<rect x="34" y="75" width="6" height="1" fill="white"/>
<rect x="47" y="75" width="3" height="1" fill="white"/>
<rect x="59" y="75" width="7" height="1" fill="white"/>
<rect x="82" y="75" width="6" height="1" fill="white"/>
<rect x="103" y="75" width="4" height="1" fill="white"/>
<rect x="34" y="76" width="6" height="1" fill="white"/>
<rect x="59" y="76" width="7" height="1" fill="white"/>
<rect x="82" y="76" width="6" height="1" fill="white"/>
<rect x="103" y="76" width="4" height="1" fill="white"/>
<rect x="34" y="77" width="6" height="1" fill="white"/>
<rect x="59" y="77" width="7" height="1" fill="white"/>
<rect x="82" y="77" width="6" height="1" fill="white"/>
<rect x="103" y="77" width="4" height="1" fill="white"/>
<rect x="34" y="78" width="6" height="1" fill="white"/>
<rect x="59" y="78" width="7" height="1" fill="white"/>
<rect x="82" y="78" width="9" height="1" fill="white"/>
<rect x="34" y="79" width="6" height="1" fill="white"/>
<rect x="59" y="79" width="7" height="1" fill="white"/>
<rect x="82" y="79" width="9" height="1" fill="white"/>
<rect x="34" y="80" width="6" height="1" fill="white"/>
<rect x="59" y="80" width="7" height="1" fill="white"/>
<rect x="82" y="80" width="9" height="1" fill="white"/>
<rect x="34" y="81" width="6" height="1" fill="white"/>
<rect x="59" y="81" width="7" height="1" fill="white"/>
<rect x="82" y="81" width="9" height="1" fill="white"/>
<rect x="112" y="81" width="4" height="1" fill="white"/>
<rect x="34" y="82" width="6" height="1" fill="white"/>
<rect x="59" y="82" width="7" height="1" fill="white"/>
<rect x="85" y="82" width="6" height="1" fill="white"/>
<rect x="112" y="82" width="4" height="1" fill="white"/>
<rect x="34" y="83" width="6" height="1" fill="white"/>
<rect x="59" y="83" width="7" height="1" fill="white"/>
<rect x="85" y="83" width="9" height="1" fill="white"/>
<rect x="112" y="83" width="4" height="1" fill="white"/>
<rect x="12" y="84" width="3" height="1" fill="white"/>
<rect x="31" y="84" width="9" height="1" fill="white"/>
<rect x="59" y="84" width="7" height="1" fill="white"/>
<rect x="85" y="84" width="9" height="1" fill="white"/>
<rect x="112" y="84" width="4" height="1" fill="white"/>
<rect x="12" y="85" width="3" height="1" fill="white"/>
<rect x="31" y="85" width="9" height="1" fill="white"/>
<rect x="59" y="85" width="7" height="1" fill="white"/>
<rect x="85" y="85" width="9" height="1" fill="white"/>
<rect x="12" y="86" width="3" height="1" fill="white"/>
<rect x="31" y="86" width="9" height="1" fill="white"/>
<rect x="59" y="86" width="7" height="1" fill="white"/>
<rect x="85" y="86" width="9" height="1" fill="white"/>
<rect x="12" y="87" width="3" height="1" fill="white"/>
<rect x="31" y="87" width="9" height="1" fill="white"/>
<rect x="59" y="87" width="10" height="1" fill="white"/>
<rect x="85" y="87" width="15" height="1" fill="white"/>
<rect x="31" y="88" width="6" height="1" fill="white"/>
<rect x="63" y="88" width="6" height="1" fill="white"/>
<rect x="88" y="88" width="12" height="1" fill="white"/>
<rect x="31" y="89" width="6" height="1" fill="white"/>
<rect x="63" y="89" width="6" height="1" fill="white"/>
<rect x="88" y="89" width="12" height="1" fill="white"/>
<rect x="31" y="90" width="6" height="1" fill="white"/>
<rect x="63" y="90" width="8" height="1" fill="white"/>
<rect x="88" y="90" width="12" height="1" fill="white"/>
<rect x="116" y="90" width="15" height="1" fill="white"/>
<rect x="8" y="91" width="4" height="1" fill="white"/>
<rect x="27" y="91" width="10" height="1" fill="white"/>
<rect x="66" y="91" width="7" height="1" fill="white"/>
<rect x="91" y="91" width="14" height="1" fill="white"/>
<rect x="116" y="91" width="15" height="1" fill="white"/>
<rect x="8" y="92" width="4" height="1" fill="white"/>
<rect x="27" y="92" width="10" height="1" fill="white"/>
<rect x="66" y="92" width="7" height="1" fill="white"/>
<rect x="91" y="92" width="14" height="1" fill="white"/>
<rect x="116" y="92" width="15" height="1" fill="white"/>
<rect x="8" y="93" width="4" height="1" fill="white"/>
<rect x="27" y="93" width="10" height="1" fill="white"/>
<rect x="66" y="93" width="7" height="1" fill="white"/>
<rect x="91" y="93" width="14" height="1" fill="white"/>
<rect x="116" y="93" width="22" height="1" fill="white"/>
<rect x="8" y="94" width="26" height="1" fill="white"/>
<rect x="66" y="94" width="13" height="1" fill="white"/>
<rect x="98" y="94" width="40" height="1" fill="white"/>
<rect x="8" y="95" width="26" height="1" fill="white"/>
<rect x="66" y="95" width="13" height="1" fill="white"/>
<rect x="98" y="95" width="40" height="1" fill="white"/>
<rect x="8" y="96" width="26" height="1" fill="white"/>
<rect x="66" y="96" width="13" height="1" fill="white"/>
<rect x="98" y="96" width="43" height="1" fill="white"/>
<rect x="8" y="97" width="19" height="1" fill="white"/>
<rect x="69" y="97" width="16" height="1" fill="white"/>
<rect x="131" y="97" width="11" height="1" fill="white"/>
<rect x="8" y="98" width="19" height="1" fill="white"/>
<rect x="37" y="98" width="4" height="1" fill="white"/>
<rect x="69" y="98" width="16" height="1" fill="white"/>
<rect x="131" y="98" width="11" height="1" fill="white"/>
<rect x="8" y="99" width="19" height="1" fill="white"/>
<rect x="37" y="99" width="4" height="1" fill="white"/>
<rect x="69" y="99" width="16" height="1" fill="white"/>
<rect x="131" y="99" width="10" height="1" fill="white"/>
<rect x="11" y="100" width="7" height="1" fill="white"/>
<rect x="37" y="100" width="4" height="1" fill="white"/>
<rect x="75" y="100" width="13" height="1" fill="white"/>
<rect x="135" y="100" width="10" height="1" fill="white"/>
<rect x="11" y="101" width="7" height="1" fill="white"/>
<rect x="37" y="101" width="3" height="1" fill="white"/>
<rect x="75" y="101" width="13" height="1" fill="white"/>
<rect x="135" y="101" width="10" height="1" fill="white"/>
<rect x="11" y="102" width="7" height="1" fill="white"/>
<rect x="37" y="102" width="3" height="1" fill="white"/>
<rect x="75" y="102" width="13" height="1" fill="white"/>
<rect x="135" y="102" width="10" height="1" fill="white"/>
<rect x="11" y="103" width="7" height="1" fill="white"/>
<rect x="37" y="103" width="3" height="1" fill="white"/>
<rect x="75" y="103" width="13" height="1" fill="white"/>
<rect x="138" y="103" width="7" height="1" fill="white"/>
<rect x="11" y="104" width="7" height="1" fill="white"/>
<rect x="37" y="104" width="3" height="1" fill="white"/>
<rect x="138" y="104" width="7" height="1" fill="white"/>
<rect x="11" y="105" width="7" height="1" fill="white"/>
<rect x="37" y="105" width="3" height="1" fill="white"/>
<rect x="138" y="105" width="7" height="1" fill="white"/>
<rect x="15" y="106" width="7" height="1" fill="white"/>
<rect x="37" y="106" width="7" height="1" fill="white"/>
<rect x="138" y="106" width="10" height="1" fill="white"/>
<rect x="15" y="107" width="7" height="1" fill="white"/>
<rect x="37" y="107" width="7" height="1" fill="white"/>
<rect x="138" y="107" width="10" height="1" fill="white"/>
<rect x="15" y="108" width="7" height="1" fill="white"/>
<rect x="37" y="108" width="7" height="1" fill="white"/>
<rect x="138" y="108" width="10" height="1" fill="white"/>
<rect x="15" y="109" width="7" height="1" fill="white"/>
<rect x="37" y="109" width="7" height="1" fill="white"/>
<rect x="141" y="109" width="7" height="1" fill="white"/>
<rect x="15" y="110" width="10" height="1" fill="white"/>
<rect x="40" y="110" width="7" height="1" fill="white"/>
<rect x="141" y="110" width="7" height="1" fill="white"/>
<rect x="15" y="111" width="10" height="1" fill="white"/>
<rect x="40" y="111" width="7" height="1" fill="white"/>
<rect x="141" y="111" width="7" height="1" fill="white"/>
<rect x="15" y="112" width="10" height="1" fill="white"/>
<rect x="40" y="112" width="7" height="1" fill="white"/>
<rect x="141" y="112" width="7" height="1" fill="white"/>
<rect x="17" y="113" width="14" height="1" fill="white"/>
<rect x="43" y="113" width="11" height="1" fill="white"/>
<rect x="75" y="113" width="16" height="1" fill="white"/>
<rect x="120" y="113" width="12" height="1" fill="white"/>
<rect x="141" y="113" width="7" height="1" fill="white"/>
<rect x="17" y="114" width="14" height="1" fill="white"/>
<rect x="43" y="114" width="11" height="1" fill="white"/>
<rect x="75" y="114" width="16" height="1" fill="white"/>
<rect x="120" y="114" width="12" height="1" fill="white"/>
<rect x="141" y="114" width="7" height="1" fill="white"/>
<rect x="17" y="115" width="14" height="1" fill="white"/>
<rect x="43" y="115" width="11" height="1" fill="white"/>
<rect x="75" y="115" width="16" height="1" fill="white"/>
<rect x="120" y="115" width="12" height="1" fill="white"/>
<rect x="141" y="115" width="7" height="1" fill="white"/>
<rect x="21" y="116" width="39" height="1" fill="white"/>
<rect x="70" y="116" width="27" height="1" fill="white"/>
<rect x="114" y="116" width="24" height="1" fill="white"/>
<rect x="141" y="116" width="7" height="1" fill="white"/>
<rect x="21" y="117" width="38" height="1" fill="white"/>
<rect x="70" y="117" width="27" height="1" fill="white"/>
<rect x="114" y="117" width="24" height="1" fill="white"/>
<rect x="141" y="117" width="7" height="1" fill="white"/>
<rect x="21" y="118" width="39" height="1" fill="white"/>
<rect x="70" y="118" width="27" height="1" fill="white"/>
<rect x="114" y="118" width="24" height="1" fill="white"/>
<rect x="141" y="118" width="7" height="1" fill="white"/>
<rect x="27" y="119" width="54" height="1" fill="white"/>
<rect x="88" y="119" width="35" height="1" fill="white"/>
<rect x="130" y="119" width="18" height="1" fill="white"/>
<rect x="27" y="120" width="54" height="1" fill="white"/>
<rect x="88" y="120" width="35" height="1" fill="white"/>
<rect x="130" y="120" width="18" height="1" fill="white"/>
<rect x="27" y="121" width="54" height="1" fill="white"/>
<rect x="88" y="121" width="35" height="1" fill="white"/>
<rect x="130" y="121" width="18" height="1" fill="white"/>
<rect x="53" y="122" width="23" height="1" fill="white"/>
<rect x="94" y="122" width="23" height="1" fill="white"/>
<rect x="134" y="122" width="14" height="1" fill="white"/>
<rect x="53" y="123" width="23" height="1" fill="white"/>
<rect x="94" y="123" width="23" height="1" fill="white"/>
<rect x="134" y="123" width="14" height="1" fill="white"/>
<rect x="53" y="124" width="23" height="1" fill="white"/>
<rect x="94" y="124" width="23" height="1" fill="white"/>
<rect x="134" y="124" width="14" height="1" fill="white"/>
</svg>